STARTFONT 2.1
FONT -FontForge-Fez-Regular-R-Normal--10-100-75-75-C-100-ISO10646-1
SIZE 10 75 75
FONTBOUNDINGBOX 10 10 0 -2
COMMENT "Generated by fontforge, http://fontforge.sourceforge.net"
COMMENT "Copyright (c) 2015, peko,,,"
STARTPROPERTIES 34
FOUNDRY "FontForge"
FAMILY_NAME "Fez"
WEIGHT_NAME "Regular"
SLANT "R"
SETWIDTH_NAME "Normal"
ADD_STYLE_NAME ""
PIXEL_SIZE 10
POINT_SIZE 100
RESOLUTION_X 75
RESOLUTION_Y 75
SPACING "C"
AVERAGE_WIDTH 100
CHARSET_REGISTRY "ISO10646"
CHARSET_ENCODING "1"
FONTNAME_REGISTRY ""
CHARSET_COLLECTIONS "ISO10646-1"
FONT_NAME "Fez"
FACE_NAME "Fez"
COPYRIGHT "Copyright (c) 2015, peko,,,"
FONT_VERSION "001.000"
FONT_ASCENT 8
FONT_DESCENT 2
UNDERLINE_POSITION -1
UNDERLINE_THICKNESS 1
X_HEIGHT 6
CAP_HEIGHT 6
RAW_ASCENT 800
RAW_DESCENT 200
NORM_SPACE 10
RELATIVE_WEIGHT 40
RELATIVE_SETWIDTH 50
FIGURE_WIDTH 10
AVG_LOWERCASE_WIDTH 100
AVG_UPPERCASE_WIDTH 100
ENDPROPERTIES
CHARS 110
STARTCHAR space
ENCODING 32
SWIDTH 1000 0
DWIDTH 10 0
BBX 9 1 0 2
BITMAP
AA80
ENDCHAR
STARTCHAR exclam
ENCODING 33
SWIDTH 1000 0
DWIDTH 10 0
BBX 9 9 0 -2
BITMAP
FF80
8080
8880
8880
8880
8080
8880
8080
FF80
ENDCHAR
STARTCHAR quotedbl
ENCODING 34
SWIDTH 1000 0
DWIDTH 10 0
BBX 9 9 0 -2
BITMAP
FF80
8080
9480
9480
8080
8080
8080
8080
FF80
ENDCHAR
STARTCHAR numbersign
ENCODING 35
SWIDTH 1000 0
DWIDTH 10 0
BBX 9 9 0 -2
BITMAP
FF80
8080
9480
BE80
9480
BE80
9480
8080
FF80
ENDCHAR
STARTCHAR dollar
ENCODING 36
SWIDTH 1000 0
DWIDTH 10 0
BBX 9 9 0 -2
BITMAP
FF80
8080
BE80
A880
BE80
8A80
BE80
8080
FF80
ENDCHAR
STARTCHAR percent
ENCODING 37
SWIDTH 1000 0
DWIDTH 10 0
BBX 9 9 0 -2
BITMAP
FF80
A880
E880
8880
8880
8880
8B80
8A80
FF80
ENDCHAR
STARTCHAR ampersand
ENCODING 38
SWIDTH 1000 0
DWIDTH 10 0
BBX 9 9 0 -2
BITMAP
FF80
9480
9C80
8880
BE80
A280
A380
A280
FF80
ENDCHAR
STARTCHAR quotesingle
ENCODING 39
SWIDTH 1000 0
DWIDTH 10 0
BBX 9 9 0 -2
BITMAP
FF80
8080
8880
8880
8080
8080
8080
8080
FF80
ENDCHAR
STARTCHAR parenleft
ENCODING 40
SWIDTH 1000 0
DWIDTH 10 0
BBX 9 9 0 -2
BITMAP
FF80
8280
8280
8280
8280
8280
8280
8280
FF80
ENDCHAR
STARTCHAR parenright
ENCODING 41
SWIDTH 1000 0
DWIDTH 10 0
BBX 9 9 0 -2
BITMAP
FF80
A080
A080
A080
A080
A080
A080
A080
FF80
ENDCHAR
STARTCHAR asterisk
ENCODING 42
SWIDTH 1000 0
DWIDTH 10 0
BBX 9 9 0 -2
BITMAP
FF80
8080
AA80
8080
A280
8080
AA80
8080
FF80
ENDCHAR
STARTCHAR plus
ENCODING 43
SWIDTH 1000 0
DWIDTH 10 0
BBX 9 9 0 -2
BITMAP
FF80
8080
8880
8880
BE80
8880
8880
8080
FF80
ENDCHAR
STARTCHAR comma
ENCODING 44
SWIDTH 1000 0
DWIDTH 10 0
BBX 9 9 0 -2
BITMAP
FF80
8080
8080
8080
8080
8880
8880
8080
FF80
ENDCHAR
STARTCHAR hyphen
ENCODING 45
SWIDTH 1000 0
DWIDTH 10 0
BBX 9 9 0 -2
BITMAP
FF80
8080
8080
8080
BE80
8080
8080
8080
FF80
ENDCHAR
STARTCHAR period
ENCODING 46
SWIDTH 1000 0
DWIDTH 10 0
BBX 9 9 0 -2
BITMAP
FF80
8080
8080
8080
8880
8080
8080
8080
FF80
ENDCHAR
STARTCHAR slash
ENCODING 47
SWIDTH 1000 0
DWIDTH 10 0
BBX 9 9 0 -2
BITMAP
FF80
8080
8F80
8880
8880
8880
F880
8080
FF80
ENDCHAR
STARTCHAR zero
ENCODING 48
SWIDTH 1000 0
DWIDTH 10 0
BBX 9 9 0 -2
BITMAP
FF80
8080
8080
8080
8080
8080
8080
8080
FF80
ENDCHAR
STARTCHAR one
ENCODING 49
SWIDTH 1000 0
DWIDTH 10 0
BBX 9 9 0 -2
BITMAP
FF80
8880
8880
8880
8880
8080
8080
8080
FF80
ENDCHAR
STARTCHAR two
ENCODING 50
SWIDTH 1000 0
DWIDTH 10 0
BBX 9 9 0 -2
BITMAP
FF80
8080
8080
8080
8F80
8080
8080
8080
FF80
ENDCHAR
STARTCHAR three
ENCODING 51
SWIDTH 1000 0
DWIDTH 10 0
BBX 9 9 0 -2
BITMAP
FF80
8080
8080
8080
8880
8880
8880
8880
FF80
ENDCHAR
STARTCHAR four
ENCODING 52
SWIDTH 1000 0
DWIDTH 10 0
BBX 9 9 0 -2
BITMAP
FF80
8880
8880
8880
8880
8880
8880
8880
FF80
ENDCHAR
STARTCHAR five
ENCODING 53
SWIDTH 1000 0
DWIDTH 10 0
BBX 9 9 0 -2
BITMAP
FF80
8080
8080
8080
8F80
8880
8880
8880
FF80
ENDCHAR
STARTCHAR six
ENCODING 54
SWIDTH 1000 0
DWIDTH 10 0
BBX 9 9 0 -2
BITMAP
FF80
8080
8080
8080
FF80
8080
8080
8080
FF80
ENDCHAR
STARTCHAR seven
ENCODING 55
SWIDTH 1000 0
DWIDTH 10 0
BBX 9 9 0 -2
BITMAP
FF80
8880
8880
8880
FF80
8080
8080
8080
FF80
ENDCHAR
STARTCHAR eight
ENCODING 56
SWIDTH 1000 0
DWIDTH 10 0
BBX 9 9 0 -2
BITMAP
FF80
8880
8880
8880
F880
8880
8880
8880
FF80
ENDCHAR
STARTCHAR nine
ENCODING 57
SWIDTH 1000 0
DWIDTH 10 0
BBX 9 9 0 -2
BITMAP
FF80
8080
8080
8080
FF80
8880
8880
8880
FF80
ENDCHAR
STARTCHAR colon
ENCODING 58
SWIDTH 1000 0
DWIDTH 10 0
BBX 9 9 0 -2
BITMAP
FF80
8080
8880
8080
8080
8080
8880
8080
FF80
ENDCHAR
STARTCHAR semicolon
ENCODING 59
SWIDTH 1000 0
DWIDTH 10 0
BBX 9 9 0 -2
BITMAP
FF80
8080
8880
8080
8080
8880
8880
8080
FF80
ENDCHAR
STARTCHAR less
ENCODING 60
SWIDTH 1000 0
DWIDTH 10 0
BBX 9 9 0 -2
BITMAP
FF80
8080
B880
A080
A080
A080
B880
8080
FF80
ENDCHAR
STARTCHAR equal
ENCODING 61
SWIDTH 1000 0
DWIDTH 10 0
BBX 9 9 0 -2
BITMAP
FF80
8080
8080
BE80
8080
BE80
8080
8080
FF80
ENDCHAR
STARTCHAR greater
ENCODING 62
SWIDTH 1000 0
DWIDTH 10 0
BBX 9 9 0 -2
BITMAP
FF80
8080
8E80
8280
8280
8280
8E80
8080
FF80
ENDCHAR
STARTCHAR question
ENCODING 63
SWIDTH 1000 0
DWIDTH 10 0
BBX 9 9 0 -2
BITMAP
FF80
8080
BE80
A280
BA80
8280
8E80
8880
FF80
ENDCHAR
STARTCHAR at
ENCODING 64
SWIDTH 1000 0
DWIDTH 10 0
BBX 9 9 0 -2
BITMAP
FF80
8080
BE80
A280
AA80
A280
BF80
8080
FF80
ENDCHAR
STARTCHAR A
ENCODING 65
SWIDTH 1000 0
DWIDTH 10 0
BBX 9 9 0 -2
BITMAP
FF80
FF80
FF80
FF80
C180
DD80
1C00
FF80
FF80
ENDCHAR
STARTCHAR B
ENCODING 66
SWIDTH 1000 0
DWIDTH 10 0
BBX 9 9 0 -2
BITMAP
FF80
FF80
C180
DD80
DD80
DD80
0180
FF80
FF80
ENDCHAR
STARTCHAR C
ENCODING 67
SWIDTH 1000 0
DWIDTH 10 0
BBX 9 9 0 -2
BITMAP
FF80
FF80
FC00
FD80
FD80
FD80
FC00
FF80
FF80
ENDCHAR
STARTCHAR D
ENCODING 68
SWIDTH 1000 0
DWIDTH 10 0
BBX 9 9 0 -2
BITMAP
FF80
FF80
FF80
FF80
0780
F780
F780
F780
F780
ENDCHAR
STARTCHAR E
ENCODING 69
SWIDTH 1000 0
DWIDTH 10 0
BBX 9 9 0 -2
BITMAP
FF80
FF80
1F80
DF80
C000
FF80
FF80
FF80
FF80
ENDCHAR
STARTCHAR F
ENCODING 70
SWIDTH 1000 0
DWIDTH 10 0
BBX 9 9 0 -2
BITMAP
FF80
FF80
F780
F780
0780
F780
F780
FF80
FF80
ENDCHAR
STARTCHAR G
ENCODING 71
SWIDTH 1000 0
DWIDTH 10 0
BBX 9 9 0 -2
BITMAP
F780
F780
C780
DF80
DF80
DF80
C780
F780
F780
ENDCHAR
STARTCHAR H
ENCODING 72
SWIDTH 1000 0
DWIDTH 10 0
BBX 9 9 0 -2
BITMAP
FF80
FF80
C180
DD80
DD80
DD80
C180
FD80
FD80
ENDCHAR
STARTCHAR I
ENCODING 73
SWIDTH 1000 0
DWIDTH 10 0
BBX 9 9 0 -2
BITMAP
DD80
DD80
C180
FF80
FF80
FF80
FF80
FF80
FF80
ENDCHAR
STARTCHAR J
ENCODING 74
SWIDTH 1000 0
DWIDTH 10 0
BBX 9 9 0 -2
BITMAP
FF80
FF80
FF80
FF80
F000
F780
F780
F780
F780
ENDCHAR
STARTCHAR K
ENCODING 75
SWIDTH 1000 0
DWIDTH 10 0
BBX 9 9 0 -2
BITMAP
FD80
FD80
F180
F780
F780
F780
F780
F780
F780
ENDCHAR
STARTCHAR L
ENCODING 76
SWIDTH 1000 0
DWIDTH 10 0
BBX 9 9 0 -2
BITMAP
F780
F780
F780
F780
C180
FF80
FF80
FF80
FF80
ENDCHAR
STARTCHAR M
ENCODING 77
SWIDTH 1000 0
DWIDTH 10 0
BBX 9 9 0 -2
BITMAP
FF80
FF80
C180
DD80
DD80
1C00
FF80
FF80
FF80
ENDCHAR
STARTCHAR N
ENCODING 78
SWIDTH 1000 0
DWIDTH 10 0
BBX 9 9 0 -2
BITMAP
FF80
FF80
C000
DD80
DD80
DD80
C180
FF80
FF80
ENDCHAR
STARTCHAR O
ENCODING 79
SWIDTH 1000 0
DWIDTH 10 0
BBX 9 9 0 -2
BITMAP
FF80
FF80
1F80
DF80
DF80
DF80
1F80
FF80
FF80
ENDCHAR
STARTCHAR P
ENCODING 80
SWIDTH 1000 0
DWIDTH 10 0
BBX 9 9 0 -2
BITMAP
FB80
FB80
FB80
F800
FF80
FF80
FF80
FF80
FF80
ENDCHAR
STARTCHAR Q
ENCODING 81
SWIDTH 1000 0
DWIDTH 10 0
BBX 9 9 0 -2
BITMAP
FB80
FB80
FB80
FB80
FB80
C380
DF80
DF80
DF80
ENDCHAR
STARTCHAR R
ENCODING 82
SWIDTH 1000 0
DWIDTH 10 0
BBX 9 9 0 -2
BITMAP
FF80
FF80
DB80
DB80
C000
DB80
DB80
FF80
FF80
ENDCHAR
STARTCHAR S
ENCODING 83
SWIDTH 1000 0
DWIDTH 10 0
BBX 9 9 0 -2
BITMAP
F780
F780
F180
FD80
FD80
FD80
F180
F780
F780
ENDCHAR
STARTCHAR T
ENCODING 84
SWIDTH 1000 0
DWIDTH 10 0
BBX 9 9 0 -2
BITMAP
DF80
DF80
C180
DD80
DD80
DD80
C180
FF80
FF80
ENDCHAR
STARTCHAR U
ENCODING 85
SWIDTH 1000 0
DWIDTH 10 0
BBX 9 9 0 -2
BITMAP
FF80
FF80
FF80
FF80
FF80
FF80
C180
DD80
DD80
ENDCHAR
STARTCHAR V
ENCODING 86
SWIDTH 1000 0
DWIDTH 10 0
BBX 9 9 0 -2
BITMAP
FF80
FF80
FF80
FF80
C180
DD80
DD80
DD80
DD80
ENDCHAR
STARTCHAR W
ENCODING 87
SWIDTH 1000 0
DWIDTH 10 0
BBX 9 9 0 -2
BITMAP
EF80
EF80
EF80
0F80
FF80
FF80
FF80
FF80
FF80
ENDCHAR
STARTCHAR X
ENCODING 88
SWIDTH 1000 0
DWIDTH 10 0
BBX 9 9 0 -2
BITMAP
FB80
FB80
FB80
C380
DF80
DF80
DF80
DF80
DF80
ENDCHAR
STARTCHAR Y
ENCODING 89
SWIDTH 1000 0
DWIDTH 10 0
BBX 9 9 0 -2
BITMAP
F780
F780
F780
C180
F780
F780
C180
FF80
FF80
ENDCHAR
STARTCHAR Z
ENCODING 90
SWIDTH 1000 0
DWIDTH 10 0
BBX 9 9 0 -2
BITMAP
FF80
FF80
0780
F780
F780
F780
F000
FF80
FF80
ENDCHAR
STARTCHAR bracketleft
ENCODING 91
SWIDTH 1000 0
DWIDTH 10 0
BBX 5 9 4 -2
BITMAP
E8
80
80
80
80
80
80
80
E8
ENDCHAR
STARTCHAR backslash
ENCODING 92
SWIDTH 1000 0
DWIDTH 10 0
BBX 9 9 0 -2
BITMAP
B800
0800
0800
0800
0800
0800
0800
0800
0E80
ENDCHAR
STARTCHAR bracketright
ENCODING 93
SWIDTH 1000 0
DWIDTH 10 0
BBX 5 9 0 -2
BITMAP
B8
08
08
08
08
08
08
08
B8
ENDCHAR
STARTCHAR asciicircum
ENCODING 94
SWIDTH 1000 0
DWIDTH 10 0
BBX 5 9 2 -2
BITMAP
20
70
A8
20
20
20
20
20
20
ENDCHAR
STARTCHAR underscore
ENCODING 95
SWIDTH 1000 0
DWIDTH 10 0
BBX 9 1 0 -2
BITMAP
BE80
ENDCHAR
STARTCHAR grave
ENCODING 96
SWIDTH 1000 0
DWIDTH 10 0
BBX 3 3 3 1
BITMAP
C0
40
60
ENDCHAR
STARTCHAR a
ENCODING 97
SWIDTH 1000 0
DWIDTH 10 0
BBX 9 9 0 -2
BITMAP
FF80
8080
8080
8080
BE80
A280
E380
8080
FF80
ENDCHAR
STARTCHAR b
ENCODING 98
SWIDTH 1000 0
DWIDTH 10 0
BBX 9 9 0 -2
BITMAP
FF80
8080
BE80
A280
A280
A280
FE80
8080
FF80
ENDCHAR
STARTCHAR c
ENCODING 99
SWIDTH 1000 0
DWIDTH 10 0
BBX 9 9 0 -2
BITMAP
FF80
8080
8780
8480
8480
8480
8780
8080
FF80
ENDCHAR
STARTCHAR d
ENCODING 100
SWIDTH 1000 0
DWIDTH 10 0
BBX 9 9 0 -2
BITMAP
FF80
8080
8080
8080
F880
8880
8880
8880
FF80
ENDCHAR
STARTCHAR e
ENCODING 101
SWIDTH 1000 0
DWIDTH 10 0
BBX 9 9 0 -2
BITMAP
FF80
8080
F080
9080
9F80
8080
8080
8080
FF80
ENDCHAR
STARTCHAR f
ENCODING 102
SWIDTH 1000 0
DWIDTH 10 0
BBX 9 9 0 -2
BITMAP
FF80
8080
A480
A480
FC80
A480
A480
8080
FF80
ENDCHAR
STARTCHAR g
ENCODING 103
SWIDTH 1000 0
DWIDTH 10 0
BBX 9 9 0 -2
BITMAP
FF80
8880
B880
A080
A080
A080
B880
8880
FF80
ENDCHAR
STARTCHAR h
ENCODING 104
SWIDTH 1000 0
DWIDTH 10 0
BBX 9 9 0 -2
BITMAP
FF80
8080
BE80
A280
A280
A280
BE80
8280
FF80
ENDCHAR
STARTCHAR i
ENCODING 105
SWIDTH 1000 0
DWIDTH 10 0
BBX 9 9 0 -2
BITMAP
FF80
A280
A280
BE80
8080
8080
8080
8080
FF80
ENDCHAR
STARTCHAR j
ENCODING 106
SWIDTH 1000 0
DWIDTH 10 0
BBX 9 9 0 -2
BITMAP
FF80
8080
8080
8080
8F80
8880
8880
8880
FF80
ENDCHAR
STARTCHAR k
ENCODING 107
SWIDTH 1000 0
DWIDTH 10 0
BBX 9 9 0 -2
BITMAP
FF80
8280
8280
8E80
8880
8880
8880
8880
FF80
ENDCHAR
STARTCHAR l
ENCODING 108
SWIDTH 1000 0
DWIDTH 10 0
BBX 9 9 0 -2
BITMAP
FF80
8880
BE80
8880
8880
BE80
8080
8080
FF80
ENDCHAR
STARTCHAR m
ENCODING 109
SWIDTH 1000 0
DWIDTH 10 0
BBX 9 9 0 -2
BITMAP
FF80
8080
BE80
A280
A280
E380
8080
8080
FF80
ENDCHAR
STARTCHAR n
ENCODING 110
SWIDTH 1000 0
DWIDTH 10 0
BBX 9 9 0 -2
BITMAP
FF80
8080
BF80
A280
A280
A280
BE80
8080
FF80
ENDCHAR
STARTCHAR o
ENCODING 111
SWIDTH 1000 0
DWIDTH 10 0
BBX 9 9 0 -2
BITMAP
FF80
8080
F080
9080
9080
9080
F080
8080
FF80
ENDCHAR
STARTCHAR p
ENCODING 112
SWIDTH 1000 0
DWIDTH 10 0
BBX 9 9 0 -2
BITMAP
FF80
8480
8480
8780
8080
8080
8080
8080
FF80
ENDCHAR
STARTCHAR q
ENCODING 113
SWIDTH 1000 0
DWIDTH 10 0
BBX 9 9 0 -2
BITMAP
FF80
8480
8480
8480
8480
BC80
A080
A080
FF80
ENDCHAR
STARTCHAR r
ENCODING 114
SWIDTH 1000 0
DWIDTH 10 0
BBX 9 9 0 -2
BITMAP
FF80
8080
A480
A480
BF80
A480
A480
8080
FF80
ENDCHAR
STARTCHAR s
ENCODING 115
SWIDTH 1000 0
DWIDTH 10 0
BBX 9 9 0 -2
BITMAP
FF80
8880
8E80
8280
8280
8280
8E80
8880
FF80
ENDCHAR
STARTCHAR t
ENCODING 116
SWIDTH 1000 0
DWIDTH 10 0
BBX 9 9 0 -2
BITMAP
FF80
A080
BE80
A280
A280
A280
BE80
8080
FF80
ENDCHAR
STARTCHAR u
ENCODING 117
SWIDTH 1000 0
DWIDTH 10 0
BBX 9 9 0 -2
BITMAP
FF80
8080
8080
8080
8080
BE80
A280
A280
FF80
ENDCHAR
STARTCHAR v
ENCODING 118
SWIDTH 1000 0
DWIDTH 10 0
BBX 9 9 0 -2
BITMAP
FF80
8080
8080
BE80
A280
A280
A280
A280
FF80
ENDCHAR
STARTCHAR w
ENCODING 119
SWIDTH 1000 0
DWIDTH 10 0
BBX 9 9 0 -2
BITMAP
FF80
9080
9080
F080
8080
8080
8080
8080
FF80
ENDCHAR
STARTCHAR x
ENCODING 120
SWIDTH 1000 0
DWIDTH 10 0
BBX 9 9 0 -2
BITMAP
FF80
8480
8480
BC80
A080
A080
A080
A080
FF80
ENDCHAR
STARTCHAR y
ENCODING 121
SWIDTH 1000 0
DWIDTH 10 0
BBX 9 9 0 -2
BITMAP
FF80
8880
BE80
8880
8880
BE80
8080
8080
FF80
ENDCHAR
STARTCHAR z
ENCODING 122
SWIDTH 1000 0
DWIDTH 10 0
BBX 9 9 0 -2
BITMAP
FF80
8080
F880
8880
8880
8880
8F80
8080
FF80
ENDCHAR
STARTCHAR braceleft
ENCODING 123
SWIDTH 1000 0
DWIDTH 10 0
BBX 4 9 5 -2
BITMAP
D0
80
80
80
D0
80
80
80
D0
ENDCHAR
STARTCHAR bar
ENCODING 124
SWIDTH 1000 0
DWIDTH 10 0
BBX 1 9 4 -2
BITMAP
80
80
80
80
80
80
80
80
80
ENDCHAR
STARTCHAR braceright
ENCODING 125
SWIDTH 1000 0
DWIDTH 10 0
BBX 4 9 0 -2
BITMAP
B0
10
10
10
B0
10
10
10
B0
ENDCHAR
STARTCHAR asciitilde
ENCODING 126
SWIDTH 1000 0
DWIDTH 10 0
BBX 9 4 0 1
BITMAP
B800
0800
0800
0E80
ENDCHAR
STARTCHAR block
ENCODING 9608
SWIDTH 1000 0
DWIDTH 10 0
BBX 10 10 0 -2
BITMAP
FFC0
FFC0
FFC0
FFC0
FFC0
FFC0
FFC0
FFC0
FFC0
FFC0
ENDCHAR
STARTCHAR uni2B60
ENCODING 11104
SWIDTH 1000 0
DWIDTH 10 0
BBX 3 9 4 -2
BITMAP
80
80
A0
A0
20
40
80
80
80
ENDCHAR
STARTCHAR uni2B61
ENCODING 11105
SWIDTH 1000 0
DWIDTH 10 0
BBX 9 9 0 -2
BITMAP
BF80
8080
8080
8000
E480
0480
8680
8580
F480
ENDCHAR
STARTCHAR uni2B64
ENCODING 11108
SWIDTH 1000 0
DWIDTH 10 0
BBX 7 9 1 -2
BITMAP
38
44
44
FE
82
92
92
82
7C
ENDCHAR
STARTCHAR uni2B80
ENCODING 11136
SWIDTH 1000 0
DWIDTH 10 0
BBX 5 9 0 -2
BITMAP
80
C0
E0
F0
F8
F0
E0
C0
80
ENDCHAR
STARTCHAR uni2B81
ENCODING 11137
SWIDTH 1000 0
DWIDTH 10 0
BBX 5 10 0 -2
BITMAP
80
40
20
10
08
08
10
20
40
80
ENDCHAR
STARTCHAR uni2B82
ENCODING 11138
SWIDTH 1000 0
DWIDTH 10 0
BBX 5 10 5 -2
BITMAP
08
18
38
78
F8
F8
78
38
18
08
ENDCHAR
STARTCHAR uni2B83
ENCODING 11139
SWIDTH 1000 0
DWIDTH 10 0
BBX 5 10 5 -2
BITMAP
08
10
20
40
80
80
40
20
10
08
ENDCHAR
STARTCHAR uniE0A0
ENCODING 57504
SWIDTH 1000 0
DWIDTH 10 0
BBX 4 9 3 -2
BITMAP
80
80
90
90
20
40
80
80
80
ENDCHAR
STARTCHAR uniE0A1
ENCODING 57505
SWIDTH 1000 0
DWIDTH 10 0
BBX 9 9 0 -2
BITMAP
BF80
8080
8000
8480
8480
F680
0580
8480
F480
ENDCHAR
STARTCHAR uniE0A2
ENCODING 57506
SWIDTH 1000 0
DWIDTH 10 0
BBX 7 9 1 -2
BITMAP
38
44
44
FE
82
92
92
82
7C
ENDCHAR
STARTCHAR uniE0B0
ENCODING 57520
SWIDTH 1000 0
DWIDTH 10 0
BBX 5 10 0 -2
BITMAP
80
C0
E0
F0
F8
F8
F0
E0
C0
80
ENDCHAR
STARTCHAR uniE0B1
ENCODING 57521
SWIDTH 1000 0
DWIDTH 10 0
BBX 5 10 0 -2
BITMAP
80
40
20
10
08
08
10
20
40
80
ENDCHAR
STARTCHAR uniE0B2
ENCODING 57522
SWIDTH 1000 0
DWIDTH 10 0
BBX 5 10 5 -2
BITMAP
08
18
38
78
F8
F8
78
38
18
08
ENDCHAR
STARTCHAR uniE0B3
ENCODING 57523
SWIDTH 1000 0
DWIDTH 10 0
BBX 5 10 5 -2
BITMAP
08
10
20
40
80
80
40
20
10
08
ENDCHAR
ENDFONT
